<svg width="25" height="22" viewBox="0 0 25 22" fill="none" xmlns="http://www.w3.org/2000/svg">
<path d="M15.5 2.2C14.5 2.2 13.4 2.4 12.5 2.7C11.6 2.4 10.5 2.2 9.5 2.2C8.6 2.2 7.8 2.3 7 2.5V0H0V11.7C0 16.9 4.3 21.2 9.5 21.2C10.5 21.2 11.6 21 12.5 20.7C13.4 21 14.5 21.2 15.5 21.2H18H18.4H25V11.7C25 6.4 20.7 2.2 15.5 2.2ZM24 11.7C24 15.1 21.9 18.1 19 19.4V3.9C21.9 5.3 24 8.2 24 11.7ZM15.5 3.2C16.4 3.2 17.2 3.3 18 3.6V7.5C17.1 5.7 15.7 4.3 14 3.4C14.5 3.2 15 3.2 15.5 3.2ZM18 11.7C18 15.3 15.7 18.4 12.5 19.6C9.3 18.4 7 15.3 7 11.7C7 8.1 9.3 5 12.5 3.8C15.7 4.9 18 8 18 11.7ZM9.5 3.2C10 3.2 10.5 3.3 11 3.3C9.3 4.2 7.9 5.7 7 7.4V3.5C7.8 3.3 8.6 3.2 9.5 3.2ZM1 1H6V2.8C3.8 3.7 2 5.4 1 7.4V1ZM1 11.7C1 8.3 3.1 5.3 6 4V19.5C3.1 18.1 1 15.1 1 11.7ZM9.5 20.2C8.6 20.2 7.8 20.1 7 19.8V15.9C7.9 17.7 9.3 19.1 11 20C10.5 20.1 10 20.2 9.5 20.2ZM14 20C15.7 19.1 17.1 17.6 18 15.9V19.8C17.2 20 16.4 20.2 15.5 20.2C15 20.2 14.5 20.1 14 20ZM24 20.2H19.7C21.6 19.3 23.1 17.8 24 15.9V20.2Z" fill="#1C1B22"/>
</svg>
