<svg width="945" height="438" viewBox="0 0 945 438" fill="none" xmlns="http://www.w3.org/2000/svg">
<path d="M196.3 177.6C165.9 177.6 144.9 196.5 143 225.4H172.5C173.7 211.3 182.2 203 196.3 203C210 203 218 211.2 218 225.4V232.9C210.2 232 204.1 231.5 197 231.5C160.2 231.5 140.4 244.7 140.4 269.2C140.4 292.8 157.8 308.1 184 308.1C201.2 308.1 213.7 302 221.9 290.2V305.8H248.5V226.6C248.6 195.8 229.3 177.6 196.3 177.6ZM218 261.8C218 276.4 207.9 285.6 191.1 285.6C178.8 285.6 171.3 279 171.3 268.4C171.3 257.1 180.5 251.2 199.1 251.2C204.8 251.2 210.2 251.7 218 252.9V261.8Z" fill="#1C1B22"/>
<path d="M274.1 217.2C274.1 236.8 287.8 249.3 310.4 253.3L333 257.5C345 259.9 350.2 263.2 350.2 271.2C350.2 280.2 340.5 284.2 327.8 284.2C311.5 284.2 300.5 276 300.2 263H268.9C271.5 291 291.5 308.2 327.3 308.2C363.1 308.2 383.2 291.9 383.2 265.5C383.2 247.4 370.7 236 346.2 231.3L321.9 226.8C310.6 224.7 305.4 221.6 305.4 214.1C305.4 206.1 313.4 201.6 325.4 201.6C339.3 201.6 348.5 209.1 349.7 221.4H381C378.6 194.3 357 177.6 325.4 177.6C294.1 177.6 274.1 193.9 274.1 217.2Z" fill="#1C1B22"/>
<path d="M591.3 177.6C560.9 177.6 539.9 196.5 538 225.4H567.5C568.7 211.3 577.2 203 591.3 203C605 203 613 211.2 613 225.4V232.9C605.2 232 599.1 231.5 592 231.5C555.2 231.5 535.4 244.7 535.4 269.2C535.4 292.8 552.8 308.1 579 308.1C596.2 308.1 608.7 302 616.9 290.2V305.8H643.5V226.6C643.6 195.8 624.3 177.6 591.3 177.6ZM613 261.8C613 276.4 602.9 285.6 586.1 285.6C573.8 285.6 566.3 279 566.3 268.4C566.3 257.1 575.5 251.2 594.1 251.2C599.8 251.2 605.2 251.7 613 252.9V261.8Z" fill="#1C1B22"/>
<path d="M741.6 177.6C725.6 177.6 711.7 184.9 702 198.3V180H671.8V351.3H704.6V289.6C714 301.9 726.8 308.2 741.6 308.2C775.5 308.2 797.5 280.2 797.5 242.9C797.5 205.9 775.6 177.6 741.6 177.6ZM734.3 279C718.3 279 704.8 266.7 704.8 242.9C704.8 219.1 718.2 206.6 734.3 206.6C750.3 206.6 763.8 219.3 763.8 242.9C763.8 267 750.3 279 734.3 279Z" fill="#1C1B22"/>
<path d="M888.2 177.6C872.2 177.6 858.3 184.9 848.6 198.3V180H818.4V351.3H851.2V289.6C860.6 301.9 873.4 308.2 888.2 308.2C922.1 308.2 944.1 280.2 944.1 242.9C944.1 205.9 922.1 177.6 888.2 177.6ZM880.9 279C864.9 279 851.4 266.7 851.4 242.9C851.4 219.1 864.8 206.6 880.9 206.6C897 206.6 910.4 219.3 910.4 242.9C910.4 267 896.9 279 880.9 279Z" fill="#1C1B22"/>
<path d="M325.6 46.7C302.8 46.7 280.9 50.6 260.6 57.8C240.2 50.6 218.4 46.7 195.6 46.7C173 46.7 151.3 50.6 131.1 57.7V0H0V136.1V242.3V306.3H10.8C37.4 382.8 110.2 437.8 195.6 437.8C218.4 437.8 240.3 433.9 260.6 426.7C281 433.9 302.8 437.8 325.6 437.8C348.2 437.8 369.9 433.9 390.1 426.8V437.8H521.1V242.3C521.2 134.5 433.5 46.7 325.6 46.7ZM519.4 225C513.5 197.1 490.7 177.7 459.8 177.7C423.5 177.7 397.3 205 397.3 242.5C397.3 281.9 422.5 308 460.2 308C489.1 308 510.2 293.6 518.4 268.1C508.7 341.1 458.4 401.4 391.1 425.6V59.1C461.1 84.2 512.6 148.2 519.4 225ZM519.1 263.2H487.4C483.6 275.7 474 282.8 459.6 282.8C442.9 282.8 433 271.5 430.8 251H520C519.8 255.1 519.5 259.1 519.1 263.2ZM431.3 230.2C434.1 211.6 443.8 201.7 459.1 201.7C474.7 201.7 484.6 212.8 485.5 230.2H431.3ZM325.6 47.7C348.2 47.7 369.9 51.6 390.1 58.7V222.4C382.4 146.6 331.3 83.4 262.1 58.3C282 51.5 303.4 47.7 325.6 47.7ZM390.2 242.3C390.2 326.8 336.1 398.9 260.6 425.7C185.2 398.9 131 326.8 131 242.3C131 157.8 185.1 85.7 260.6 58.9C336 85.7 390.2 157.8 390.2 242.3ZM195.6 47.7C217.8 47.7 239.2 51.5 259.1 58.4C189.9 83.5 138.7 146.7 131.1 222.5V58.7C151.3 51.6 173 47.7 195.6 47.7ZM1 1H130.1V58C89.3 72.6 54.7 100.3 31.4 136.1H1V1ZM34 242.5C34 218.1 48.5 207.2 63 207.2C80.6 207.2 92 221.2 92 243C92 267.6 77.5 278.6 63 278.6C45.4 278.5 34 264.3 34 242.5ZM11.8 306.3H31.1V289.2C40.9 302 54.4 308.7 70.2 308.7C86.7 308.7 100.9 302.1 111.2 289.7C121.1 277.8 126.5 261.2 126.5 243C126.5 204.3 103.3 177.2 70.1 177.2C55.4 177.2 42.8 183.3 33.6 194.9V136.2H32.4C55.4 100.9 89.6 73.6 129.9 59.2V425.6C74.9 405.7 31.2 361.7 11.8 306.3ZM195.6 436.9C173 436.9 151.3 433 131.1 425.9V262.1C138.8 337.9 189.9 401.1 259.1 426.2C239.2 433.1 217.8 436.9 195.6 436.9ZM325.6 436.9C303.4 436.9 282 433.1 262.1 426.2C331.3 401.1 382.5 337.9 390.1 262.1V425.8C369.9 433 348.2 436.9 325.6 436.9ZM520.2 436.9H391.2V426.6C460.9 401.7 512.5 338.3 520.2 262.2V436.9Z" fill="#1C1B22"/>
</svg>
