<svg width="295" height="250" viewBox="0 0 295 250" fill="none" xmlns="http://www.w3.org/2000/svg">
<path d="M182.603 25.9434C170.822 25.9434 157.863 28.3019 147.26 31.8396C136.658 28.3019 123.699 25.9434 111.918 25.9434C101.315 25.9434 91.8904 27.1226 82.4658 29.4811V0H0V137.972C0 199.292 50.6575 250 111.918 250C123.699 250 136.658 247.642 147.26 244.104C157.863 247.642 170.822 250 182.603 250H212.055H216.767H294.521V137.972C294.521 75.4717 243.863 25.9434 182.603 25.9434ZM282.74 137.972C282.74 178.066 258 213.443 223.836 228.774V45.9906C258 62.5 282.74 96.6981 282.74 137.972ZM182.603 37.7359C193.205 37.7359 202.63 38.9151 212.055 42.4528V88.4434C201.452 67.217 184.959 50.7075 164.932 40.0943C170.822 37.7359 176.712 37.7359 182.603 37.7359ZM212.055 137.972C212.055 180.425 184.959 216.981 147.26 231.132C109.562 216.981 82.4658 180.425 82.4658 137.972C82.4658 95.5189 109.562 58.9623 147.26 44.8113C184.959 57.783 212.055 94.3396 212.055 137.972ZM111.918 37.7359C117.808 37.7359 123.699 38.9151 129.589 38.9151C109.562 49.5283 93.0685 67.217 82.4658 87.2642V41.2736C91.8904 38.9151 101.315 37.7359 111.918 37.7359ZM11.7808 11.7925H70.6849V33.0189C44.7671 43.6321 23.5616 63.6792 11.7808 87.2642V11.7925ZM11.7808 137.972C11.7808 97.8774 36.5205 62.5 70.6849 47.1698V229.953C36.5205 213.443 11.7808 178.066 11.7808 137.972ZM111.918 238.208C101.315 238.208 91.8904 237.028 82.4658 233.491V187.5C93.0685 208.726 109.562 225.236 129.589 235.849C123.699 237.028 117.808 238.208 111.918 238.208ZM164.932 235.849C184.959 225.236 201.452 207.547 212.055 187.5V233.491C202.63 235.849 193.205 238.208 182.603 238.208C176.712 238.208 170.822 237.028 164.932 235.849ZM282.74 238.208H232.082C254.466 227.594 272.137 209.906 282.74 187.5V238.208Z" fill="white"/>
</svg>
