<svg width="293" height="203" viewBox="0 0 293 203" fill="none" xmlns="http://www.w3.org/2000/svg">
<path d="M22.1 148.4C17.4 148.4 13.5 150.4 10.6 154.2V135.7H0.5V188.1H9.8V182.5C12.8 186.6 17 188.8 22.1 188.8C32.6 188.8 39.4 180 39.4 168.6C39.4 157.1 32.6 148.4 22.1 148.4ZM19.8 179.8C14.8 179.8 10.7 175.9 10.7 168.5C10.7 161.1 14.9 157.4 19.8 157.4C24.8 157.4 28.9 161.2 28.9 168.6C28.9 175.9 24.8 179.8 19.8 179.8Z" fill="#1C1B22"/>
<path d="M61.1 148.4C51.7 148.4 45.2 154.2 44.6 163.2H53.7C54.1 158.8 56.7 156.3 61.1 156.3C65.3 156.3 67.8 158.9 67.8 163.2V165.5C65.4 165.2 63.5 165.1 61.3 165.1C49.9 165.1 43.8 169.2 43.8 176.8C43.8 184.1 49.2 188.8 57.3 188.8C62.6 188.8 66.5 186.9 69 183.3V188.1H77.2V163.6C77.3 154 71.3 148.4 61.1 148.4ZM67.8 174.4C67.8 178.9 64.7 181.8 59.5 181.8C55.7 181.8 53.4 179.8 53.4 176.5C53.4 173 56.2 171.2 62 171.2C63.8 171.2 65.4 171.3 67.8 171.7V174.4Z" fill="#1C1B22"/>
<path d="M107.5 165L100 163.6C96.5 162.9 94.9 162 94.9 159.7C94.9 157.2 97.4 155.8 101.1 155.8C105.4 155.8 108.2 158.1 108.6 161.9H118.3C117.6 153.5 110.9 148.3 101.1 148.3C91.4 148.3 85.2 153.3 85.2 160.6C85.2 166.7 89.4 170.5 96.4 171.8L103.4 173.1C107.1 173.8 108.7 174.9 108.7 177.3C108.7 180.1 105.7 181.3 101.8 181.3C96.8 181.3 93.3 178.7 93.3 174.7H83.6C84.4 183.4 90.6 188.7 101.7 188.7C112.8 188.7 119 183.7 119 175.5C118.9 170 115.1 166.5 107.5 165Z" fill="#1C1B22"/>
<path d="M142.6 148.4C131.4 148.4 123.3 156.9 123.3 168.5C123.3 180.7 131.1 188.8 142.8 188.8C152.3 188.8 159.1 183.8 161.3 174.9H151.2C150 178.8 147 181 142.6 181C137.4 181 134.4 177.5 133.7 171.2H161.3C163.1 158.4 155 148.4 142.6 148.4ZM133.8 164.7C134.7 158.9 137.7 155.9 142.4 155.9C147.2 155.9 150.3 159.3 150.6 164.7H133.8Z" fill="#1C1B22"/>
<path d="M183.3 148.4C173.9 148.4 167.4 154.2 166.8 163.2H175.9C176.3 158.8 178.9 156.3 183.3 156.3C187.5 156.3 190 158.9 190 163.2V165.5C187.6 165.2 185.7 165.1 183.5 165.1C172.1 165.1 166 169.2 166 176.8C166 184.1 171.4 188.8 179.5 188.8C184.8 188.8 188.7 186.9 191.2 183.3V188.1H199.4V163.6C199.5 154 193.5 148.4 183.3 148.4ZM190 174.4C190 178.9 186.9 181.8 181.7 181.8C177.9 181.8 175.6 179.8 175.6 176.5C175.6 173 178.4 171.2 184.2 171.2C186 171.2 187.6 171.3 190 171.7V174.4Z" fill="#1C1B22"/>
<path d="M229.9 148.4C224.9 148.4 220.6 150.7 217.6 154.8V149.1H208.3V202.1H218.4V183C221.3 186.8 225.3 188.8 229.9 188.8C240.4 188.8 247.2 180.1 247.2 168.6C247.2 157.1 240.4 148.4 229.9 148.4ZM227.6 179.8C222.6 179.8 218.5 176 218.5 168.6C218.5 161.2 222.7 157.4 227.6 157.4C232.6 157.4 236.7 161.3 236.7 168.6C236.7 176 232.6 179.8 227.6 179.8Z" fill="#1C1B22"/>
<path d="M275.2 148.4C270.2 148.4 265.9 150.7 262.9 154.8V149.1H253.6V202.1H263.7V183C266.6 186.8 270.6 188.8 275.2 188.8C285.7 188.8 292.5 180.1 292.5 168.6C292.5 157.1 285.7 148.4 275.2 148.4ZM273 179.8C268 179.8 263.9 176 263.9 168.6C263.9 161.2 268.1 157.4 273 157.4C277.9 157.4 282.1 161.3 282.1 168.6C282.1 176 277.9 179.8 273 179.8Z" fill="#1C1B22"/>
<path d="M101.1 14.5C94 14.5 87.3 15.7 81 17.9C74.7 15.7 67.9 14.5 60.9 14.5C54 14.5 47.4 15.7 41.3 17.8V0H0V75.3C0 108.9 27.3 136.2 60.9 136.2C68 136.2 74.7 135 81 132.8C87.3 135 94.1 136.2 101.1 136.2C108 136.2 114.6 135 120.7 132.9V136.2H162V75.3C162 41.8 134.7 14.5 101.1 14.5ZM101.1 15.5C108 15.5 114.6 16.7 120.7 18.8V64.4C116.9 43.3 102.1 25.9 82.5 18.4C88.4 16.5 94.6 15.5 101.1 15.5ZM120.7 75.3C120.7 101.3 104.1 123.4 81 131.7C57.9 123.4 41.3 101.3 41.3 75.3C41.3 49.3 57.9 27.2 81 18.9C104.1 27.2 120.7 49.4 120.7 75.3ZM60.9 15.5C67.4 15.5 73.7 16.6 79.5 18.5C59.9 26 45.1 43.3 41.3 64.5V18.8C47.4 16.6 54 15.5 60.9 15.5ZM1 1H40.2V18.1C20.1 25.3 4.9 42.9 1 64.4V1ZM1 75.3C1 49.5 17.4 27.5 40.2 19.1V131.5C17.4 123.1 1 101.1 1 75.3ZM60.9 135.2C54 135.2 47.4 134 41.3 131.9V86.3C45.1 107.4 59.9 124.8 79.5 132.3C73.6 134.1 67.4 135.2 60.9 135.2ZM101.1 135.2C94.6 135.2 88.3 134.1 82.5 132.2C102.1 124.7 116.9 107.4 120.7 86.2V131.8C114.6 134 108 135.2 101.1 135.2ZM161 135.2H121.8V132.6C141.9 125.3 157.1 107.7 161 86.2V135.2ZM121.7 131.5V19.1C144.6 27.5 160.9 49.5 160.9 75.3C160.9 101.1 144.6 123.1 121.7 131.5Z" fill="#1C1B22"/>
</svg>
