<svg width="174" height="39" viewBox="0 0 174 39" fill="none" xmlns="http://www.w3.org/2000/svg">
<path d="M52.6143 14.2235C50.5143 14.2235 48.8143 15.1235 47.5143 16.8235V8.62354H43.0143V32.0235H47.2143V29.5235C48.5143 31.3235 50.4143 32.3235 52.7143 32.3235C57.4143 32.3235 60.4143 28.4235 60.4143 23.3235C60.3143 18.1235 57.3143 14.2235 52.6143 14.2235ZM51.6143 28.2235C49.4143 28.2235 47.5143 26.4235 47.5143 23.2235C47.5143 19.9235 49.4143 18.3235 51.6143 18.3235C53.8143 18.3235 55.7143 20.0235 55.7143 23.3235C55.6143 26.5235 53.8143 28.2235 51.6143 28.2235Z" fill="#1C1B22"/>
<path d="M70.0143 14.2236C65.8143 14.2236 62.9143 16.8236 62.7143 20.8236H66.8143C67.0143 18.8236 68.1143 17.7236 70.1143 17.7236C72.0143 17.7236 73.1143 18.8236 73.1143 20.8236V21.8236C71.9143 21.7236 71.1143 21.7236 70.1143 21.7236C65.0143 21.7236 62.3143 23.5236 62.3143 26.9236C62.3143 30.2236 64.7143 32.3236 68.3143 32.3236C70.7143 32.3236 72.4143 31.5236 73.5143 29.8236V31.9236H77.2143V21.0236C77.2143 16.7236 74.5143 14.2236 70.0143 14.2236ZM73.0143 25.8236C73.0143 27.8236 71.6143 29.1236 69.3143 29.1236C67.6143 29.1236 66.6143 28.2236 66.6143 26.7236C66.6143 25.1236 67.9143 24.3236 70.4143 24.3236C71.2143 24.3236 71.9143 24.4236 73.0143 24.5236V25.8236V25.8236Z" fill="#1C1B22"/>
<path d="M90.7144 21.6236L87.4144 21.0236C85.8144 20.7236 85.1144 20.3236 85.1144 19.2236C85.1144 18.1236 86.2144 17.5236 87.9144 17.5236C89.8144 17.5236 91.1144 18.5236 91.3144 20.2236H95.6144C95.3144 16.5236 92.3144 14.2236 87.9144 14.2236C83.6144 14.2236 80.8144 16.4236 80.8144 19.7236C80.8144 22.4236 82.7144 24.1236 85.8144 24.7236L88.9144 25.3236C90.6144 25.6236 91.3144 26.1236 91.3144 27.2236C91.3144 28.4236 90.0144 29.0236 88.2144 29.0236C86.0144 29.0236 84.4144 27.9236 84.4144 26.1236H80.1144C80.5144 30.0236 83.2144 32.3236 88.2144 32.3236C93.1144 32.3236 95.9144 30.1236 95.9144 26.4236C95.8144 23.8236 94.0144 22.3236 90.7144 21.6236Z" fill="#1C1B22"/>
<path d="M106.314 14.2236C101.314 14.2236 97.7144 18.0236 97.7144 23.1236C97.7144 28.5236 101.214 32.1236 106.414 32.1236C110.614 32.1236 113.714 29.9236 114.614 25.9236H110.114C109.614 27.6236 108.214 28.6236 106.314 28.6236C104.014 28.6236 102.614 27.0236 102.314 24.2236H114.614C115.514 18.7236 111.814 14.2236 106.314 14.2236ZM102.414 21.5236C102.814 18.9236 104.114 17.6236 106.214 17.6236C108.314 17.6236 109.714 19.1236 109.814 21.5236H102.414Z" fill="#1C1B22"/>
<path d="M124.514 14.2236C120.314 14.2236 117.414 16.8236 117.114 20.8236H121.214C121.414 18.8236 122.514 17.7236 124.514 17.7236C126.414 17.7236 127.514 18.8236 127.514 20.8236V21.8236C126.414 21.7236 125.614 21.6236 124.614 21.6236C119.514 21.6236 116.814 23.4236 116.814 26.8236C116.814 30.1236 119.214 32.2236 122.814 32.2236C125.214 32.2236 126.914 31.4236 128.014 29.7236V31.8236H131.714V21.0236C131.714 16.7236 129.014 14.2236 124.514 14.2236ZM127.514 25.8236C127.514 27.8236 126.114 29.1236 123.814 29.1236C122.114 29.1236 121.114 28.2236 121.114 26.7236C121.114 25.1236 122.414 24.3236 124.914 24.3236C125.714 24.3236 126.414 24.4236 127.514 24.5236V25.8236Z" fill="#1C1B22"/>
<path d="M145.214 14.2236C143.014 14.2236 141.114 15.2236 139.714 17.1236V14.6236H135.514V38.2236H140.014V29.7236C141.314 31.4236 143.114 32.3236 145.114 32.3236C149.814 32.3236 152.814 28.4236 152.814 23.3236C152.914 18.1236 149.914 14.2236 145.214 14.2236ZM144.214 28.2236C142.014 28.2236 140.114 26.5236 140.114 23.2236C140.114 19.9236 142.014 18.2236 144.214 18.2236C146.414 18.2236 148.314 20.0236 148.314 23.2236C148.314 26.5236 146.414 28.2236 144.214 28.2236Z" fill="#1C1B22"/>
<path d="M165.514 14.2236C163.314 14.2236 161.414 15.2236 160.014 17.1236V14.6236H155.814V38.2236H160.314V29.7236C161.614 31.4236 163.414 32.3236 165.414 32.3236C170.114 32.3236 173.114 28.4236 173.114 23.3236C173.214 18.1236 170.114 14.2236 165.514 14.2236ZM164.414 28.2236C162.214 28.2236 160.314 26.5236 160.314 23.2236C160.314 19.9236 162.214 18.2236 164.414 18.2236C166.614 18.2236 168.514 20.0236 168.514 23.2236C168.514 26.5236 166.714 28.2236 164.414 28.2236Z" fill="#1C1B22"/>
<path d="M23.1015 3.67883C21.6111 3.67883 19.9716 3.97691 18.6302 4.42404C17.2889 3.97691 15.6494 3.67883 14.159 3.67883C12.8176 3.67883 11.6253 3.82787 10.4329 4.12595V0.399902H0V17.8378C0 25.588 6.4088 31.9968 14.159 31.9968C15.6494 31.9968 17.2889 31.6987 18.6302 31.2516C19.9716 31.6987 21.6111 31.9968 23.1015 31.9968H26.8276H27.4237H37.2605V17.8378C37.2605 9.93859 30.8517 3.67883 23.1015 3.67883ZM35.7701 17.8378C35.7701 22.9052 32.6402 27.3765 28.318 29.314V6.21254C32.6402 8.29913 35.7701 12.6213 35.7701 17.8378ZM23.1015 5.16925C24.4429 5.16925 25.6352 5.31829 26.8276 5.76541V11.5781C25.4862 8.89529 23.3996 6.80871 20.8659 5.46733C21.6111 5.16925 22.3563 5.16925 23.1015 5.16925ZM26.8276 17.8378C26.8276 23.2033 23.3996 27.8236 18.6302 29.6121C13.8609 27.8236 10.4329 23.2033 10.4329 17.8378C10.4329 12.4723 13.8609 7.852 18.6302 6.0635C23.3996 7.70296 26.8276 12.3233 26.8276 17.8378ZM14.159 5.16925C14.9042 5.16925 15.6494 5.31829 16.3946 5.31829C13.8609 6.65967 11.7743 8.89529 10.4329 11.429V5.61637C11.6253 5.31829 12.8176 5.16925 14.159 5.16925ZM1.49042 1.89032H8.94252V4.57308C5.66359 5.91446 2.98084 8.44817 1.49042 11.429V1.89032ZM1.49042 17.8378C1.49042 12.7704 4.6203 8.29913 8.94252 6.36158V29.4631C4.6203 27.3765 1.49042 22.9052 1.49042 17.8378ZM14.159 30.5064C12.8176 30.5064 11.6253 30.3573 10.4329 29.9102V24.0976C11.7743 26.7803 13.8609 28.8669 16.3946 30.2083C15.6494 30.3573 14.9042 30.5064 14.159 30.5064ZM20.8659 30.2083C23.3996 28.8669 25.4862 26.6313 26.8276 24.0976V29.9102C25.6352 30.2083 24.4429 30.5064 23.1015 30.5064C22.3563 30.5064 21.6111 30.3573 20.8659 30.2083ZM35.7701 30.5064H29.3613C32.1931 29.165 34.4287 26.9294 35.7701 24.0976V30.5064Z" fill="#1C1B22"/>
</svg>
