<svg width="91" height="77" viewBox="0 0 91 77" fill="none" xmlns="http://www.w3.org/2000/svg">
<path d="M56.4 8C52.5 8 48.7 8.7 45.2 9.9C41.7 8.7 38 8 34.1 8C30.4 8 26.8 8.6 23.4 9.7V0H0V42.1C0 60.9 15.3 76.2 34.1 76.2C38 76.2 41.8 75.5 45.3 74.3C48.8 75.5 52.6 76.2 56.5 76.2C60.2 76.2 63.8 75.6 67.2 74.5V76.2H90.6V42.1C90.5 23.3 75.2 8 56.4 8ZM89.5 42.1C89.5 56.2 80.6 68.3 68.1 73V11.2C80.6 15.9 89.5 28 89.5 42.1ZM56.4 9C60.1 9 63.7 9.6 67.1 10.8V33.9C64.5 23.2 56.8 14.5 46.7 10.5C49.8 9.5 53.1 9 56.4 9ZM67.1 42.1C67.1 56.4 58 68.6 45.2 73.2C32.5 68.6 23.3 56.4 23.3 42.1C23.3 27.8 32.5 15.6 45.2 11C58 15.6 67.1 27.8 67.1 42.1ZM34.1 9C37.5 9 40.7 9.5 43.8 10.5C33.7 14.5 26.1 23.2 23.4 33.9V10.8C26.7 9.7 30.3 9 34.1 9ZM1 1H22.4V10.1C11.8 14 3.7 22.9 1 33.9V1ZM1 42.1C1 28 9.9 15.9 22.4 11.2V73C9.9 68.3 1 56.2 1 42.1ZM34.1 75.1C30.4 75.1 26.8 74.5 23.4 73.3V50.3C26 60.9 33.7 69.6 43.8 73.7C40.7 74.6 37.4 75.1 34.1 75.1ZM56.4 75.1C53 75.1 49.8 74.6 46.7 73.6C56.8 69.6 64.4 60.9 67.1 50.2V73.3C63.8 74.5 60.2 75.1 56.4 75.1ZM89.5 75.1H68.1V74C78.6 70.1 86.7 61.2 89.5 50.2V75.1Z" fill="#1C1B22"/>
</svg>
